PathFileType	4	(X/Y/Z)	C:\Users\86182\Documents\cortex\Trimmed_M1_H16.trc
DataRate	CameraRate	NumFrames	NumMarkers	Units	OrigDataRate	OrigDataStartFrame	OrigNumFrames
100.00	100.00	       156	2	mm	100.00	181	       901
Frame#	Time	gripper			box			
		X1	Y1	Z1	X2	Y2	Z2	

181	1.800	227.99770	206.04471	203.63644	234.23788	205.30518	59.10261	
182	1.810	228.03012	206.04547	204.07114	234.26884	205.30669	59.54684	
183	1.820	228.07637	206.04698	204.50749	234.30692	205.31039	59.99496	
184	1.830	228.12109	206.04924	204.94835	234.34467	205.31642	60.44429	
185	1.840	228.14868	206.05278	205.39665	234.37781	205.32381	60.89307	
186	1.850	228.15454	206.05759	205.85196	234.40802	205.33131	61.33879	
187	1.860	228.14301	206.06308	206.31013	234.43698	205.33841	61.77928	
188	1.870	228.11728	206.07002	206.76682	234.46088	205.34538	62.21325	
189	1.880	228.07584	206.08096	207.22083	234.47353	205.35284	62.64002	
190	1.890	228.01718	206.09775	207.67291	234.47319	205.36057	63.06016	
191	1.900	227.94577	206.11914	208.12216	234.46408	205.36716	63.47616	
192	1.910	227.87190	206.14095	208.56584	234.45227	205.37054	63.89098	
193	1.920	227.80557	206.15857	209.00259	234.44086	205.36865	64.30539	
194	1.930	227.75186	206.16937	209.43358	234.42688	205.35922	64.71872	
195	1.940	227.71132	206.17316	209.86098	234.40312	205.34016	65.13288	
196	1.950	227.68381	206.17126	210.28654	234.36476	205.31105	65.55315	
197	1.960	227.67073	206.16577	210.71184	234.31358	205.27409	65.98524	
198	1.970	227.67351	206.15923	211.13863	234.25745	205.23372	66.43221	
199	1.980	227.69231	206.15434	211.56871	234.20682	205.19514	66.89251	
200	1.990	227.72523	206.15315	212.00369	234.16856	205.16335	67.36096	
201	2.000	227.76727	206.15604	212.44444	234.14145	205.14166	67.83241	
202	2.010	227.81166	206.16202	212.89020	234.12035	205.13094	68.30379	
203	2.020	227.85301	206.16980	213.33917	234.10440	205.12950	68.77307	
204	2.030	227.88918	206.17841	213.78970	234.09842	205.13435	69.23846	
205	2.040	227.92166	206.18756	214.23943	234.10539	205.14201	69.69884	
206	2.050	227.95314	206.19766	214.68497	234.11809	205.14871	70.15437	
207	2.060	227.98195	206.20906	215.12469	234.12157	205.15089	70.60620	
208	2.070	228.00084	206.22151	215.56023	234.10486	205.14592	71.05573	
209	2.080	228.00356	206.23463	215.99350	234.06779	205.13252	71.50397	
210	2.090	227.99126	206.24792	216.42474	234.01842	205.11156	71.95080	
211	2.100	227.97072	206.26031	216.85391	233.96768	205.08664	72.39450	
212	2.110	227.94763	206.27054	217.28209	233.92522	205.06232	72.83315	
213	2.120	227.92294	206.27852	217.71176	233.89569	205.04144	73.26701	
214	2.130	227.89444	206.28551	218.14656	233.87798	205.02541	73.69923	
215	2.140	227.86029	206.29225	218.58998	233.86998	205.01564	74.13326	
216	2.150	227.82246	206.29822	219.04262	233.87173	205.01268	74.57094	
217	2.160	227.78635	206.30281	219.50140	233.88112	205.01466	75.01266	
218	2.170	227.75403	206.30598	219.96339	233.89185	205.01865	75.45712	
219	2.180	227.71904	206.30768	220.42836	233.89877	205.02325	75.90170	
220	2.190	227.67282	206.30725	220.89618	233.90071	205.02888	76.34525	
221	2.200	227.61461	206.30368	221.36475	233.89751	205.03583	76.78930	
222	2.210	227.55005	206.29567	221.83221	233.88818	205.04317	77.23517	
223	2.220	227.48169	206.28302	222.29865	233.87296	205.04948	77.68063	
224	2.230	227.40663	206.26709	222.76433	233.85344	205.05406	78.12141	
225	2.240	227.32510	206.24936	223.22720	233.82716	205.05786	78.55640	
226	2.250	227.24612	206.23036	223.68248	233.78476	205.06300	78.98985	
227	2.260	227.17987	206.21013	224.12625	233.71716	205.07150	79.42805	
228	2.270	227.12709	206.18881	224.56046	233.62593	205.08369	79.87455	
229	2.280	227.08041	206.16702	224.99200	233.52420	205.09753	80.32753	
230	2.290	227.03415	206.14624	225.42592	233.42888	205.10953	80.78106	
231	2.300	226.99101	206.12820	225.86169	233.35246	205.11783	81.23001	
232	2.310	226.95964	206.11426	226.29715	233.29883	205.12386	81.67484	
233	2.320	226.94522	206.10561	226.73398	233.26443	205.13036	82.12167	
234	2.330	226.94357	206.10309	227.17728	233.24347	205.13948	82.57674	
235	2.340	226.94499	206.10637	227.63116	233.23099	205.15312	83.04157	
236	2.350	226.94380	206.11421	228.09570	233.22185	205.17282	83.51447	
237	2.360	226.94365	206.12541	228.56677	233.20905	205.19867	83.99483	
238	2.370	226.95244	206.13924	229.03900	233.18527	205.22975	84.48272	
239	2.380	226.97285	206.15547	229.50912	233.14853	205.26494	84.97538	
240	2.390	226.99973	206.17439	229.97552	233.10495	205.30197	85.46658	
241	2.400	227.02499	206.19505	230.43600	233.06271	205.33734	85.94975	
242	2.410	227.04295	206.21402	230.88896	233.02394	205.36845	86.42150	
243	2.420	227.05060	206.22688	231.33630	232.98409	205.39499	86.88307	
244	2.430	227.04517	206.23097	231.78168	232.93716	205.41756	87.33839	
245	2.440	227.02321	206.22650	232.22571	232.87920	205.43594	87.79056	
246	2.450	226.98407	206.21657	232.66594	232.80962	205.44960	88.23886	
247	2.460	226.93427	206.20589	233.09988	232.73384	205.45869	88.68051	
248	2.470	226.88513	206.19815	233.52759	232.66130	205.46397	89.11585	
249	2.480	226.84570	206.19344	233.95233	232.59749	205.46622	89.55037	
250	2.490	226.82164	206.18935	234.37802	232.53975	205.46677	89.99055	
251	2.500	226.81680	206.18459	234.80592	232.48337	205.46744	90.43878	
252	2.510	226.82986	206.18019	235.23483	232.42891	205.46936	90.89316	
253	2.520	226.85349	206.17775	235.66475	232.38220	205.47318	91.35040	
254	2.530	226.88167	206.17798	236.09784	232.34953	205.47984	91.80772	
255	2.540	226.91447	206.18051	236.53580	232.33073	205.48982	92.26482	
256	2.550	226.95267	206.18394	236.97833	232.31770	205.50229	92.72478	
257	2.560	226.99069	206.18686	237.42461	232.30344	205.51593	93.18901	
258	2.570	227.01895	206.18890	237.87433	232.28949	205.52957	93.65235	
259	2.580	227.03236	206.19025	238.32678	232.28120	205.54170	94.10817	
260	2.590	227.03490	206.19051	238.77896	232.28012	205.55070	94.55553	
261	2.600	227.03433	206.18887	239.22592	232.28329	205.55649	94.99697	
262	2.610	227.03235	206.18553	239.66359	232.28648	205.56047	95.43222	
263	2.620	227.02309	206.18259	240.09142	232.28598	205.56351	95.85826	
264	2.630	227.00301	206.18257	240.51198	232.28027	205.56520	96.27408	
265	2.640	226.97731	206.18605	240.92883	232.27310	205.56531	96.68140	
266	2.650	226.95636	206.19133	241.34406	232.27243	205.56422	97.08239	
267	2.660	226.94876	206.19667	241.75757	232.28281	205.56209	97.48045	
268	2.670	226.95624	206.20187	242.16927	232.30043	205.55911	97.88159	
269	2.680	226.97224	206.20770	242.58157	232.31677	205.55640	98.29108	
270	2.690	226.98851	206.21472	242.99857	232.32553	205.55528	98.70956	
271	2.700	227.00366	206.22284	243.42287	232.32669	205.55612	99.13496	
272	2.710	227.02283	206.23103	243.85474	232.32646	205.55824	99.56625	
273	2.720	227.04880	206.23807	244.29318	232.33275	205.56122	100.00330	
274	2.730	227.07741	206.24380	244.73703	232.34879	205.56531	100.44487	
275	2.740	227.10126	206.24940	245.18607	232.37103	205.57101	100.88838	
276	2.750	227.11635	206.25581	245.64059	232.39413	205.57875	101.33179	
277	2.760	227.12463	206.26358	246.09941	232.41682	205.58876	101.77446	
278	2.770	227.12958	206.27335	246.55978	232.44154	205.60077	102.21617	
279	2.780	227.13023	206.28574	247.01965	232.46928	205.61421	102.65634	
280	2.790	227.12238	206.30074	247.47812	232.49826	205.62901	103.09354	
281	2.800	227.10544	206.31744	247.93373	232.52628	205.64513	103.52589	
282	2.810	227.08727	206.33371	248.38324	232.55098	205.66125	103.95300	
283	2.820	227.08148	206.34673	248.82178	232.57054	205.67462	104.37679	
284	2.830	227.10161	206.35458	249.24391	232.58424	205.68263	104.80079	
285	2.840	227.15820	206.35641	249.64581	232.58833	205.68365	105.22935	
286	2.850	227.25793	206.35153	250.02679	232.57368	205.67607	105.66586	
287	2.860	227.40002	206.33974	250.38950	232.53259	205.65804	106.11053	
288	2.870	227.57018	206.32289	250.74078	232.46800	205.62952	106.56074	
289	2.880	227.73486	206.30554	251.09496	232.39384	205.59415	107.01362	
290	2.890	227.83803	206.29497	251.47592	232.32610	205.55847	107.46810	
291	2.900	227.79819	206.30185	251.91800	232.27368	205.52858	107.92420	
292	2.910	227.50372	206.34109	252.46808	232.23708	205.50697	108.38102	
293	2.920	226.81142	206.43106	253.18646	232.21327	205.49287	108.83657	
294	2.930	225.55963	206.59117	254.14049	232.20155	205.48488	109.28907	
295	2.940	223.60574	206.83751	255.38866	232.20418	205.48218	109.73856	
296	2.950	220.89250	207.17561	256.95471	232.22195	205.48351	110.18707	
297	2.960	217.54800	207.58878	258.78586	232.25090	205.48691	110.63609	
298	2.970	213.95248	208.03061	260.72296	232.28419	205.49036	111.08451	
299	2.980	210.61713	208.43994	262.55145	232.31592	205.49236	111.53036	
300	2.990	207.92506	208.77133	264.11060	232.34100	205.49214	111.97398	
301	3.000	206.00490	209.00974	265.34521	232.35374	205.48949	112.41794	
302	3.010	204.79608	209.16252	266.27768	232.34824	205.48428	112.86420	
303	3.020	204.15138	209.24706	266.96808	232.32126	205.47559	113.31210	
304	3.030	203.90280	209.28209	267.48730	232.27428	205.46202	113.75939	
305	3.040	203.89751	209.28368	267.89966	232.21068	205.44310	114.20496	
306	3.050	204.01450	209.26453	268.25607	232.13387	205.42000	114.65018	
307	3.060	204.16960	209.23338	268.59338	232.05145	205.39537	115.09692	
308	3.070	204.31334	209.19484	268.93430	231.97716	205.37219	115.54362	
309	3.080	204.42410	209.15150	269.28891	231.92435	205.35216	115.98427	
310	3.090	204.49875	209.10701	269.66040	231.89980	205.33556	116.41232	
311	3.100	204.54337	209.06567	270.04974	231.90204	205.32260	116.82727	
312	3.110	204.56648	209.03014	270.45560	231.92268	205.31377	117.23677	
313	3.120	204.57697	209.00159	270.87424	231.95146	205.30864	117.65115	
314	3.130	204.58296	208.98112	271.30194	231.98341	205.30614	118.07524	
315	3.140	204.58937	208.96950	271.73657	232.02003	205.30566	118.50617	
316	3.150	204.59685	208.96565	272.17609	232.06192	205.30704	118.93944	
317	3.160	204.60548	208.96681	272.61819	232.10295	205.30984	119.37534	
318	3.170	204.61708	208.97006	273.06097	232.13551	205.31398	119.81796	
319	3.180	204.63193	208.97345	273.50256	232.15863	205.31976	120.26955	
320	3.190	204.64687	208.97603	273.94226	232.17548	205.32669	120.72765	
321	3.200	204.65819	208.97815	274.38153	232.18585	205.33385	121.18660	
322	3.210	204.66376	208.98141	274.82184	232.18513	205.34190	121.64240	
323	3.220	204.66254	208.98694	275.26227	232.16734	205.35312	122.09686	
324	3.230	204.65486	208.99445	275.70084	232.12816	205.36844	122.55517	
325	3.240	204.64258	209.00327	276.13620	232.06764	205.38670	123.01871	
326	3.250	204.62759	209.01219	276.56671	231.98967	205.40668	123.48342	
327	3.260	204.61072	209.01891	276.99115	231.89940	205.42789	123.94552	
328	3.270	204.59193	209.02144	277.41119	231.80257	205.44977	124.40472	
329	3.280	204.57089	209.01929	277.83032	231.70801	205.47115	124.86048	
330	3.290	204.54817	209.01208	278.25037	231.62955	205.49057	125.30943	
331	3.300	204.52631	208.99985	278.67078	231.57996	205.50679	125.74878	
332	3.310	204.50827	208.98503	279.09091	231.56143	205.51955	126.17941	
333	3.320	204.49554	208.97153	279.51086	231.56534	205.53030	126.60460	
334	3.330	204.48973	208.96161	279.93100	231.58150	205.54085	127.02866	
335	3.340	204.49414	208.95560	280.35220	231.60481	205.55141	127.45649	
336	3.350	204.51068	208.95332	280.77545	231.63388	205.56067	127.89155	
